<svg width="41" height="51" viewBox="0 0 41 51" fill="none" xmlns="http://www.w3.org/2000/svg">
<path d="M12.7609 50.4259C12.2162 49.6448 11.8465 48.8308 11.2143 48.0662C5.51281 41.3972 4.11838 34.8012 4.58515 28.3599C4.74474 26.1419 5.76732 23.9718 7.23125 22.2657C11.3009 17.3343 16.9769 13.6994 24.315 11.6031C26.4269 10.9953 28.8649 10.7468 31.4937 10.7991C31.0044 11.1857 30.4953 11.6181 29.9384 11.9754C28.3553 13.0307 26.7046 14.0566 25.2368 15.2165C24.6203 15.7112 24.282 16.4901 24.0313 17.2526C23.9119 17.5275 24.3413 18.2041 24.727 18.426C25.1127 18.648 25.9758 18.6959 26.1428 18.4962C29.5916 15.3646 34.444 13.4416 38.8829 11.1756C40.4341 10.3788 40.5019 9.4824 38.9154 8.14001C34.963 4.84454 30.4218 2.16478 25.447 0.113625C25.3118 0.054919 25.0295 0.15014 24.5045 0.248943C24.8179 3.59813 29.5026 4.65198 32.3733 7.47779C31.4228 7.4463 30.6473 7.38186 29.9871 7.42196C17.0019 8.64557 8.13593 13.8906 2.26803 21.8534C1.35304 23.0354 0.851594 24.5604 0.592742 26.0817C-0.311312 31.6797 0.848653 37.5204 4.44252 43.4921C5.6153 45.4172 7.46818 47.2565 9.18584 49.037C9.83791 49.7558 10.9673 50.3007 11.9216 50.8784C12.1563 50.708 12.4586 50.567 12.7609 50.4259Z" fill="#FBB159"/>
</svg>
