<svg width="40" height="57" viewBox="0 0 40 57" fill="none" xmlns="http://www.w3.org/2000/svg">
<path d="M20.7054 9.63628C21.0542 11.6822 21.6273 13.6589 21.692 15.6415C21.7755 17.8072 21.6854 20.0832 21.1092 22.1316C20.4791 24.5556 18.3346 25.7472 16.0809 25.4234C13.6851 25.068 12.1143 23.2863 12.0249 20.6123C11.9013 17.1554 13.157 14.0658 14.8987 11.2039C15.3317 10.4655 15.8247 9.85977 16.2672 9.21295C14.5506 4.20793 12.7769 3.60358 0.944751 3.70799C0.564253 1.80408 1.84014 1.16423 3.27686 0.739173C8.10816 -0.867071 14.9823 1.20291 18.1519 5.04101C18.4736 5.47059 18.7859 5.80863 19.1169 6.32977C19.7895 6.12194 20.3611 5.83196 20.9422 5.63353C25.1514 4.27619 29.2986 5.46958 31.717 9.19976C33.0918 11.3254 34.0874 13.8138 34.8084 16.3304C36.033 20.5995 36.0264 25.0413 35.5021 29.3974C34.8887 34.6878 33.9912 39.9149 33.2863 45.2148C33.1784 45.9661 33.0798 46.8089 33.0001 47.8348C34.6234 46.9742 35.9216 46.1008 37.3489 45.5842C37.8794 45.3447 39.1578 45.6298 39.2364 45.9455C39.3433 46.536 39.0112 47.3565 38.9033 48.1078C38.8716 48.2498 38.6063 48.3695 38.4831 48.521C36.0253 50.7163 33.5265 52.962 31.0781 55.2488C28.9267 57.2739 28.1437 57.308 26.1692 55.1977C23.8823 52.7493 22.6061 49.7808 21.9109 46.6139C21.6655 45.5751 21.6032 44.5175 23.223 44.0736C25.6682 45.8118 25.6404 49.1455 27.8356 51.6033C28.1396 50.5081 28.4306 49.738 28.5385 48.9868C29.6202 42.3992 30.8438 35.8432 31.5499 29.2017C31.9662 25.5969 31.7229 21.8747 31.3563 18.304C31.1307 16.1066 30.2455 13.7919 29.1642 11.8211C27.3926 8.53343 24.4603 7.90923 20.7054 9.63628ZM18.2431 13.5899C17.9591 13.5266 17.6844 13.5548 17.4003 13.4914C16.1867 15.1889 15.5002 17.0635 15.2492 19.1248C15.0299 21.044 15.5089 22.1051 16.5759 22.1343C18.1418 22.0661 18.3354 20.7972 18.4057 19.6797C18.4736 17.6373 18.3079 15.5725 18.2431 13.5899Z" fill="#FBB159"/>
</svg>
