<svg width="47" height="30" viewBox="0 0 47 30" fill="none" xmlns="http://www.w3.org/2000/svg">
<path d="M40.8166 24.6368C39.4799 25.1962 38.2863 25.6439 37.1406 26.1233C33.1463 27.6741 29.134 27.9032 25.0078 26.5402C22.0286 25.5257 19.8283 23.6502 18.8206 20.706C17.8129 17.7618 17.0279 14.6898 16.1794 11.7135C15.7471 10.1856 15.4422 8.67333 14.9781 7.19319C14.0824 4.59911 12.7913 3.74126 10.0364 3.63406C6.74016 3.51178 3.70095 4.86996 0.966614 7.74036C-0.356902 6.51633 0.309993 5.30514 1.2163 4.45981C2.32929 3.40716 3.61751 2.402 4.98596 1.7948C6.54536 1.10769 8.31209 0.627262 9.98381 0.497288C14.2028 0.060829 16.8167 1.72871 18.2401 5.70729C19.0876 8.0626 19.5373 10.4981 20.2257 12.8855C20.8341 15.082 21.4904 17.3102 22.2263 19.5224C22.7703 21.1935 23.9821 22.2744 25.5756 22.9885C28.0294 24.0674 30.5137 24.2706 33.172 23.6932C33.7291 23.5809 34.2384 23.4368 34.7795 23.2449C37.1031 22.4451 39.4266 21.6454 41.9411 20.7657C38.3724 19.4974 35.0745 18.3401 31.7288 17.1511C31.681 17.1193 31.6964 16.7849 31.68 16.4983C31.9984 16.4341 32.3642 16.1947 32.619 16.2261C36.139 16.8417 39.7382 17.2342 43.2425 17.9771C45.8866 18.5622 46.7807 20.1213 45.893 22.7022C45.1482 24.9645 43.9572 27.0682 42.7502 29.0923C42.4803 29.6022 41.3024 29.9225 40.6972 29.7961C40.3149 29.7489 39.8355 28.6032 39.8823 28.0139C39.9603 26.9629 40.4205 25.959 40.8166 24.6368Z" fill="#FBB159"/>
</svg>
