<svg width="71" height="36" viewBox="0 0 71 36" fill="none" xmlns="http://www.w3.org/2000/svg">
<path d="M1.04733 27.1679C2.5296 28.1892 4.01187 29.2105 5.77487 30.417C5.81397 29.6479 5.86435 29.1258 5.81368 28.5588C5.14821 16.7086 11.2927 7.09642 22.3504 2.63071C29.4734 -0.194798 36.6814 -0.0787762 44.0806 1.51359C52.3555 3.31343 58.9977 7.83631 64.6241 13.965C67.516 17.1247 69.1505 20.9359 70.1789 25.0224C70.4262 26.1002 70.6229 27.1555 70.5334 28.4467C70.1628 27.9191 69.6687 27.3971 69.5675 26.8077C66.465 12.5442 49.088 1.6807 32.5112 2.90876C26.0219 3.35392 20.2629 5.6963 15.4644 10.0986C9.83524 15.2815 7.24966 24.2359 9.36226 31.4658C11.2816 29.5959 11.7748 26.3062 15.1597 25.6317C13.6223 28.8206 12.2702 31.7289 10.89 34.5641C10.4131 35.5017 9.57115 36.0352 8.77384 35.3786C6.00013 33.1788 3.34427 30.8498 0.665967 28.5714C0.486294 28.4311 0.58721 27.9315 0.547831 27.6115C0.738655 27.4543 0.856509 27.3251 1.04733 27.1679Z" fill="#FBB159"/>
</svg>
