<svg width="156" height="229" viewBox="0 0 156 229" fill="none" xmlns="http://www.w3.org/2000/svg">
<mask id="path-1-inside-1_209_287" fill="white">
<path fill-rule="evenodd" clip-rule="evenodd" d="M43.0671 226.023C37.6523 223.505 33.5719 219.284 31.1669 214.294C25.8013 215.671 19.9444 215.27 14.5296 212.752C2.08691 206.966 -3.30934 192.189 2.47676 179.746C7.54529 168.847 19.5132 163.354 30.7675 166.049L87.0622 44.9899C77.7494 38.1204 74.2372 25.4293 79.3057 14.5298C85.0918 2.08705 99.8692 -3.3092 112.312 2.4769C117.726 4.99473 121.807 9.21512 124.212 14.2048C129.577 12.8285 135.434 13.2288 140.848 15.7467C153.291 21.5328 158.687 36.3102 152.901 48.7529C147.589 60.1767 134.697 65.6609 122.992 62.0044L66.932 182.559C77.2716 189.154 81.3858 202.546 76.0733 213.97C70.2872 226.413 55.5098 231.809 43.0671 226.023Z"/>
</mask>
<path d="M31.1669 214.294L34.7703 212.557L33.3474 209.605L30.1729 210.42L31.1669 214.294ZM30.7675 166.049L29.8361 169.939L33.0159 170.7L34.3945 167.735L30.7675 166.049ZM87.0622 44.9899L90.6892 46.6765L92.0679 43.7118L89.4367 41.7709L87.0622 44.9899ZM124.212 14.2048L120.608 15.9416L122.031 18.8936L125.206 18.0794L124.212 14.2048ZM122.992 62.0044L124.185 58.1864L120.842 57.1421L119.365 60.3178L122.992 62.0044ZM66.932 182.559L63.305 180.873L61.8282 184.048L64.7811 185.932L66.932 182.559ZM27.5636 216.031C30.3552 221.823 35.0972 226.728 41.3805 229.65L44.7537 222.396C40.2073 220.282 36.7887 216.746 34.7703 212.557L27.5636 216.031ZM12.843 216.379C19.1262 219.301 25.9329 219.766 32.1609 218.169L30.1729 210.42C25.6697 211.575 20.7626 211.24 16.2163 209.125L12.843 216.379ZM-1.15026 178.06C-7.86786 192.505 -1.60287 209.662 12.843 216.379L16.2163 209.125C5.77669 204.271 1.24918 191.872 6.10378 181.433L-1.15026 178.06ZM31.6989 162.159C18.6312 159.03 4.73621 165.401 -1.15026 178.06L6.10378 181.433C10.3544 172.292 20.3953 167.678 29.8361 169.939L31.6989 162.159ZM34.3945 167.735L90.6892 46.6765L83.4352 43.3033L27.1405 164.362L34.3945 167.735ZM89.4367 41.7709C81.6245 36.0083 78.6822 25.357 82.9328 16.2164L75.6787 12.8431C69.7923 25.5016 73.8743 40.2324 84.6877 48.2089L89.4367 41.7709ZM82.9328 16.2164C87.7874 5.77683 100.186 1.24932 110.625 6.10392L113.999 -1.15012C99.5527 -7.86772 82.3963 -1.60273 75.6787 12.8431L82.9328 16.2164ZM110.625 6.10392C115.171 8.21794 118.59 11.7539 120.608 15.9416L127.815 12.468C125.023 6.67634 120.281 1.77152 113.999 -1.15012L110.625 6.10392ZM125.206 18.0794C129.709 16.9242 134.616 17.2596 139.162 19.3737L142.535 12.1197C136.252 9.19797 129.446 8.73269 123.218 10.3303L125.206 18.0794ZM139.162 19.3737C149.601 24.2283 154.129 36.6267 149.274 47.0662L156.528 50.4395C163.246 35.9936 156.981 18.8373 142.535 12.1197L139.162 19.3737ZM149.274 47.0662C144.818 56.6481 134.002 61.253 124.185 58.1864L121.8 65.8225C135.393 70.0688 150.359 63.7054 156.528 50.4395L149.274 47.0662ZM119.365 60.3178L63.305 180.873L70.559 184.246L126.619 63.6911L119.365 60.3178ZM79.7003 215.657C85.8694 202.39 81.0904 186.845 69.0829 179.187L64.7811 185.932C73.4528 191.462 76.9021 202.701 72.4463 212.283L79.7003 215.657ZM41.3805 229.65C55.8263 236.368 72.9827 230.103 79.7003 215.657L72.4463 212.283C67.5917 222.723 55.1933 227.251 44.7537 222.396L41.3805 229.65Z" fill="#CA65E3" mask="url(#path-1-inside-1_209_287)"/>
</svg>
