<svg width="72" height="72" viewBox="0 0 72 72" fill="none" xmlns="http://www.w3.org/2000/svg">
<path d="M25.8536 36.8842C13.7431 42.1974 10.7573 58.214 17.9724 57.1582C24.3512 56.2247 26.4463 55.1637 28.7416 56.2237C31.1761 57.3478 32.3227 60.4617 36.6296 63.9272C40.003 66.6417 48.8368 55.5692 44.3864 44.4083C41.5664 37.3361 32.8258 33.8253 25.8536 36.8842Z" stroke="#CA65E3" stroke-width="2.81842"/>
<path d="M8.73714 30.8989C8.90758 33.4357 9.76387 35.623 10.9373 37.1125C12.1158 38.6084 13.5063 39.2907 14.8119 39.2029C16.1176 39.1152 17.4043 38.2531 18.3721 36.613C19.3358 34.9799 19.8918 32.6977 19.7213 30.1609C19.5509 27.624 18.6946 25.4367 17.5212 23.9472C16.3427 22.4513 14.9522 21.7691 13.6465 21.8568C12.3409 21.9445 11.0541 22.8066 10.0863 24.4467C9.1227 26.0798 8.5667 28.362 8.73714 30.8989Z" stroke="#CA65E3" stroke-width="2.81842"/>
<path d="M51.4011 40.8225C49.8313 42.8226 49.0052 45.0214 48.8815 46.9136C48.7573 48.8139 49.3349 50.251 50.3643 51.059C51.3937 51.8669 52.9269 52.0864 54.7433 51.5142C56.5519 50.9445 58.4915 49.6196 60.0613 47.6195C61.6311 45.6194 62.4572 43.4205 62.5808 41.5283C62.705 39.628 62.1275 38.1909 61.0981 37.383C60.0687 36.575 58.5355 36.3555 56.7191 36.9277C54.9105 37.4974 52.9709 38.8224 51.4011 40.8225Z" stroke="#CA65E3" stroke-width="2.81842"/>
<path d="M42.7051 23.9557C41.0492 26.0655 40.1869 28.3983 40.0746 30.4195C39.962 32.4462 40.5956 34.0207 41.7474 34.9247C42.8991 35.8286 44.5791 36.0699 46.521 35.479C48.4576 34.8897 50.5187 33.4977 52.1746 31.388C53.8305 29.2782 54.6928 26.9453 54.8051 24.9242C54.9177 22.8974 54.2841 21.3229 53.1323 20.419C51.9806 19.515 50.3006 19.2737 48.3587 19.8647C46.4221 20.454 44.361 21.8459 42.7051 23.9557Z" stroke="#CA65E3" stroke-width="2.81842"/>
<path d="M24.4001 21.0316C24.0301 23.673 24.4896 26.1186 25.4628 27.9286C26.4364 29.7396 27.8618 30.8265 29.4404 31.0476C31.0189 31.2687 32.6881 30.6152 34.1218 29.1415C35.5548 27.6685 36.6685 25.4433 37.0385 22.8018C37.4084 20.1604 36.9489 17.7148 35.9758 15.9048C35.0022 14.0938 33.5768 13.0069 31.9982 12.7858C30.4196 12.5647 28.7505 13.2182 27.3168 14.6919C25.8838 16.1649 24.7701 18.3901 24.4001 21.0316Z" stroke="#CA65E3" stroke-width="2.81842"/>
</svg>
