<svg width="69" height="69" viewBox="0 0 69 69" fill="none" xmlns="http://www.w3.org/2000/svg">
<path d="M44.2263 34.3119C56.7695 38.5025 61.1986 54.1815 53.9174 53.7857C47.4801 53.4358 45.2972 52.5697 43.1077 53.8338C40.7854 55.1745 39.9266 58.3797 35.9525 62.2223C32.8397 65.2322 23.0363 55.0082 26.4539 43.4891C28.6196 36.1899 37.005 31.8993 44.2263 34.3119Z" stroke="#CA65E3" stroke-width="2.81842"/>
<path d="M60.7281 26.7958C60.7889 29.3377 60.135 31.5938 59.1017 33.1837C58.0641 34.7805 56.7413 35.5863 55.4331 35.6176C54.1249 35.6489 52.7651 34.9073 51.6523 33.3619C50.5442 31.8232 49.7831 29.601 49.7223 27.0591C49.6615 24.5173 50.3155 22.2612 51.3487 20.6712C52.3864 19.0744 53.7091 18.2686 55.0173 18.2374C56.3255 18.2061 57.6853 18.9477 58.7981 20.493C59.9062 22.0318 60.6673 24.254 60.7281 26.7958Z" stroke="#CA65E3" stroke-width="2.81842"/>
<path d="M19.1424 40.5556C20.8875 42.4047 21.91 44.5194 22.2051 46.3925C22.5015 48.2737 22.0569 49.7574 21.1052 50.6555C20.1535 51.5536 18.6466 51.9116 16.7857 51.5069C14.9329 51.1038 12.8809 49.9606 11.1358 48.1115C9.39073 46.2623 8.3682 44.1476 8.07309 42.2745C7.77671 40.3934 8.22129 38.9097 9.17299 38.0116C10.1247 37.1134 11.6316 36.7555 13.4925 37.1602C15.3453 37.5632 17.3973 38.7064 19.1424 40.5556Z" stroke="#CA65E3" stroke-width="2.81842"/>
<path d="M26.2698 22.9684C28.1105 24.919 29.1813 27.1638 29.4767 29.1664C29.7731 31.1745 29.2852 32.8001 28.2204 33.805C27.1555 34.8099 25.5045 35.2028 23.5168 34.7908C21.5347 34.3799 19.3556 33.1811 17.5149 31.2305C15.6741 29.2799 14.6033 27.0351 14.3079 25.0325C14.0115 23.0244 14.4994 21.3988 15.5642 20.3939C16.6291 19.3891 18.2801 18.9961 20.2678 19.4081C22.2499 19.819 24.429 21.0179 26.2698 22.9684Z" stroke="#CA65E3" stroke-width="2.81842"/>
<path d="M44.233 18.3928C44.8415 20.9897 44.6062 23.4669 43.8016 25.3579C42.9965 27.2498 41.6758 28.4617 40.1239 28.8254C38.5719 29.1891 36.8503 28.69 35.2886 27.3526C33.7277 26.016 32.4163 23.9012 31.8078 21.3043C31.1993 18.7074 31.4347 16.2302 32.2393 14.3392C33.0443 12.4472 34.365 11.2353 35.917 10.8717C37.469 10.508 39.1906 11.0071 40.7523 12.3445C42.3132 13.6811 43.6245 15.7959 44.233 18.3928Z" stroke="#CA65E3" stroke-width="2.81842"/>
</svg>
