<svg width="16" height="72" viewBox="0 0 16 72" fill="none" xmlns="http://www.w3.org/2000/svg">
<path d="M13.1854 42.7498C8.37387 44.428 5.77296 43.9635 4.03922 41.2712C2.53575 39.017 2.82697 35.4321 4.67862 33.5554C6.6594 31.4991 9.05899 31.777 13.5012 34.6966C12.6155 24.6691 8.50581 16.1818 3.68463 7.37195C2.54495 10.0956 3.53873 12.7383 1.88889 15.3259C1.47841 14.2344 1.14747 13.7031 1.04633 13.0854C0.691364 9.87463 0.336398 6.66387 0.0388828 3.4315C-0.21494 0.83844 0.797054 -0.132286 3.40533 0.526199C5.44598 1.07027 7.36486 1.988 9.51354 2.81932C8.24423 5.19828 6.3612 4.20149 4.78798 4.20295C10.3938 14.7505 15.9706 25.0467 15.5295 37.4748C15.1101 49.9604 10.7453 60.8476 3.34799 70.6458C2.96058 71.1849 2.24958 71.3867 1.45954 71.5527C4.26428 67.1537 6.93251 62.7405 8.84606 57.8897C10.7238 53.1181 13.1475 48.4034 13.1854 42.7498ZM12.1896 38.0095C11.3255 35.7115 9.03245 34.1476 7.26577 34.6809C5.80793 35.1635 4.91917 37.3338 5.6105 39.1722C6.28758 41.147 8.34296 42.079 10.3537 41.3229C12.1346 40.6531 12.7513 39.5032 12.1896 38.0095Z" fill="#FBB159"/>
</svg>
