<svg width="64" height="51" viewBox="0 0 64 51" fill="none" xmlns="http://www.w3.org/2000/svg">
<path d="M38.4828 41.8117C37.1397 40.0291 35.5841 38.2957 34.5812 36.5814C33.4717 34.7081 32.5001 32.7479 32.1666 31.0073C31.7154 28.9451 33.4985 28.0188 36.1135 28.4056C38.8986 28.8265 41.4527 30.4392 42.8077 32.7515C44.5681 35.7411 44.6486 38.348 44.091 40.7353C43.965 41.352 43.7111 41.8513 43.5317 42.3885C47.7607 46.7903 49.9831 47.3965 62.8635 47.8701C64.1744 49.5315 63.081 50.023 61.7109 50.3215C57.1868 51.4777 48.7019 49.3635 43.4337 45.8997C42.8802 45.5136 42.38 45.2069 41.7732 44.7413C41.136 44.8887 40.6477 45.1117 40.1061 45.2553C36.1447 46.2263 31.0518 44.9987 26.6552 41.6638C24.1535 39.7636 21.8956 37.5683 19.9245 35.3618C16.579 31.6187 14.4978 27.7852 13.0226 24.0502C11.2055 19.5131 9.72852 15.0442 8.007 10.5032C7.77171 9.85995 7.4831 9.13718 7.08785 8.25547C5.7186 8.92091 4.71071 9.61296 3.39392 9.99086C2.92678 10.1723 1.39585 9.86531 1.16142 9.58903C0.767037 9.07432 0.744157 8.38192 0.508864 7.73862C0.4767 7.61754 0.710269 7.52681 0.773735 7.40198C2.42728 5.62426 4.10199 3.80493 5.70222 1.94774C7.10105 0.302362 7.94055 0.310218 11.0905 2.22581C14.7406 4.44804 17.5309 7.07104 19.7795 9.83762C20.5361 10.7459 21.1015 11.6618 19.5401 11.9677C16.0509 10.3509 14.5139 7.47484 10.9594 5.24885C11.1423 6.17968 11.1863 6.83047 11.4216 7.47377C13.337 13.1082 15.0822 18.7085 17.4334 24.4074C18.6734 27.4991 20.6893 30.7234 22.7688 33.8229C24.0484 35.7302 26.1041 37.7703 28.2123 39.5228C31.694 42.445 35.1917 43.1234 38.4828 41.8117ZM39.3145 38.5165C39.6547 38.5847 39.9416 38.5734 40.2818 38.6417C40.8099 37.2343 40.6786 35.649 39.9837 33.8818C39.321 32.2357 38.2987 31.297 37.119 31.2209C35.44 31.2052 35.8251 32.2912 36.2736 33.2524C37.1598 35.0121 38.3116 36.8021 39.3145 38.5165Z" fill="#FBB159"/>
</svg>
